<?xml version="1.0" encoding="utf-8"?>
<!-- Generator: Adobe Illustrator 21.0.2, SVG Export Plug-In . SVG Version: 6.00 Build 0)  -->
<svg version="1.1" id="Layer_1" xmlns="http://www.w3.org/2000/svg" xmlns:xlink="http://www.w3.org/1999/xlink" x="0px" y="0px"
	 viewBox="0 0 205.8 209" style="enable-background:new 0 0 205.8 209;" xml:space="preserve">
<style type="text/css">
	.st0{fill:none;stroke:#14A6D1;stroke-miterlimit:10;}
	.st1{fill:#94D8ED;stroke:#14A6D1;stroke-miterlimit:10;}
	.st2{fill:#60C5C0;stroke:#14A6D1;stroke-miterlimit:10;}
	.st3{fill:none;stroke:#D1D3D4;stroke-miterlimit:10;}
	.st4{fill:#13284B;stroke:#13284B;stroke-miterlimit:10;}
	.st5{fill:#FFFFFF;}
	.st6{fill:#8DC63F;}
	.st7{fill:#0F6170;}
	.st8{fill:#E1E1D7;}
	.st9{fill:#C1374E;}
	.st10{fill:#D75265;}
	.st11{fill:#FBB03B;}
	.st12{fill:#E79624;}
	.st13{fill:#16ACA4;}
	.st14{fill:#4F3156;}
	.st15{fill:#F26A75;}
	.st16{fill:#1D4866;}
	.st17{fill:#F15A29;}
	.st18{fill:#F7941D;}
	.st19{fill:#2D455B;}
	.st20{fill:#976695;}
	.st21{fill:#314561;}
	.st22{fill:#BCBEC0;}
	.st23{fill:#D1D3D4;}
	.st24{fill:#23A3AF;}
	.st25{fill:#098997;}
	.st26{fill:#3F302A;}
	.st27{fill:#F26853;}
	.st28{fill:#D4423A;}
	.st29{fill:#03465C;}
	.st30{fill:#08253F;}
	.st31{fill:#EF8222;}
	.st32{fill:#D16A28;}
	.st33{fill:#FCBC6F;}
</style>
<g>
	<g>
		<polygon class="st0" points="103.1,53.6 82.4,70.6 60.1,26.7 		"/>
		<polygon class="st0" points="200.3,115.1 170.4,98.5 159.3,131.9 		"/>
		<polygon class="st0" points="170.4,98.5 143.3,70.8 130.1,116.5 		"/>
		<polygon class="st0" points="186.2,57.4 152.5,26.2 144.4,71.8 		"/>
		<polygon class="st0" points="169.9,98.1 184.8,57.8 144.4,71.8 		"/>
		<polygon class="st0" points="103,116.4 144.7,71.3 103.5,53.5 		"/>
		<polygon class="st0" points="64.6,157.1 100.6,116.9 58.6,85.9 		"/>
		<polygon class="st0" points="12.7,116.9 58.9,87.5 28,57.9 		"/>
		<polygon class="st0" points="27.2,159.1 65.1,157.4 12.7,116.9 		"/>
		<polygon class="st0" points="28,57.9 82.4,70.6 60.7,26.6 		"/>
		<polygon class="st0" points="59.6,27.1 102.8,53.9 96,16.4 		"/>
		<polygon class="st0" points="59.7,87.3 101.5,117.7 82.4,70.6 		"/>
		<polygon class="st0" points="100.1,172.6 130.1,116.5 101.3,118.3 		"/>
		<polygon class="st0" points="137.9,174.4 160.1,132 130.5,115.9 		"/>
		<polygon class="st0" points="124.4,201.5 138.1,173.4 100.1,172.6 		"/>
		<polygon class="st0" points="77.8,198.9 100.5,173 64.2,156.2 		"/>
		<polygon class="st0" points="137.8,174.5 173.6,175.6 159.7,132.8 		"/>
		<polygon class="st0" points="152,26.8 95.6,15.2 103.1,54.6 		"/>
		<polygon class="st0" points="201.1,115.7 173.2,175.1 124.4,201 77.6,198.3 27.2,159.1 12.7,116.9 28,57.9 60.2,27.2 96.1,15.6 
			153.1,26.8 186.2,57.4 		"/>
	</g>
	<g>
		
			<ellipse transform="matrix(0.7071 -0.7071 0.7071 0.7071 -73.0272 173.7343)" class="st1" cx="173.2" cy="175" rx="7.7" ry="7.7"/>
		
			<ellipse transform="matrix(0.7071 -0.7071 0.7071 0.7071 13.9819 148.4909)" class="st1" cx="186.2" cy="57.4" rx="4.7" ry="4.7"/>
		
			<ellipse transform="matrix(0.7071 -0.7071 0.7071 0.7071 -78.9266 43.1899)" class="st1" cx="12.7" cy="116.9" rx="3.9" ry="3.9"/>
		
			<ellipse transform="matrix(0.7071 -0.7072 0.7072 0.7071 -117.5684 113.3618)" class="st1" cx="78" cy="198.6" rx="4.6" ry="4.6"/>
		<ellipse transform="matrix(0.7071 -0.7071 0.7071 0.7071 17.1371 72.4954)" class="st1" cx="96.1" cy="15.6" rx="4.6" ry="4.6"/>
		
			<ellipse transform="matrix(0.7071 -0.7071 0.7071 0.7071 -105.8573 147.1206)" class="st1" cx="124.7" cy="201.3" rx="2.7" ry="2.7"/>
		
			<ellipse transform="matrix(0.7071 -0.7071 0.7071 0.7071 -22.8552 176.0725)" class="st1" cx="201.1" cy="115.6" rx="4.1" ry="4.1"/>
		
			<ellipse transform="matrix(0.7071 -0.7071 0.7071 0.7071 -46.5425 151.6547)" class="st1" cx="159.8" cy="132" rx="3.5" ry="3.5"/>
		
			<ellipse transform="matrix(0.7071 -0.7071 0.7071 0.7071 -8.1105 123.6138)" class="st1" cx="145.2" cy="71.6" rx="5.9" ry="5.9"/>
		<ellipse transform="matrix(0.7071 -0.7071 0.7071 0.7071 -44.1861 67.745)" class="st1" cx="59.7" cy="87.2" rx="6.7" ry="6.8"/>
		
			<ellipse transform="matrix(0.7071 -0.7071 0.7071 0.7071 -53.9446 106.1922)" class="st1" cx="101.2" cy="118.2" rx="6.4" ry="6.4"/>
		<ellipse transform="matrix(0.7071 -0.7071 0.7071 0.7071 -81.9796 148.1)" class="st1" cx="137.8" cy="173" rx="5.3" ry="5.3"/>
		<ellipse transform="matrix(0.7071 -0.7071 0.7071 0.7071 -91.6033 91.956)" class="st1" cx="65.2" cy="156.6" rx="5.3" ry="5.3"/>
		<ellipse transform="matrix(0.7071 -0.7071 0.7071 0.7071 -7.4868 88.8421)" class="st1" cx="103.5" cy="53.5" rx="4.4" ry="4.4"/>
		
			<ellipse transform="matrix(0.7071 -0.7071 0.7071 0.7071 -43.6743 126.2191)" class="st2" cx="130.5" cy="115.8" rx="2.3" ry="2.3"/>
		<ellipse transform="matrix(0.7071 -0.7071 0.7071 0.7071 -25.7888 78.9344)" class="st1" cx="82.4" cy="70.6" rx="2.3" ry="2.3"/>
		
			<ellipse transform="matrix(0.7071 -0.7071 0.7071 0.7071 -19.6919 149.3269)" class="st2" cx="170.4" cy="98.4" rx="2.8" ry="2.8"/>
		
			<ellipse transform="matrix(0.7071 -0.7071 0.7071 0.7071 -92.7141 121.302)" class="st1" cx="100.1" cy="172.6" rx="3.6" ry="3.6"/>
		<ellipse transform="matrix(0.7071 -0.7071 0.7071 0.7071 25.8349 116.0581)" class="st1" cx="153" cy="26.8" rx="5.9" ry="5.9"/>
		<ellipse transform="matrix(0.7071 -0.7071 0.7071 0.7071 -104.4932 65.8117)" class="st1" cx="27.2" cy="159" rx="3.7" ry="3.7"/>
		<ellipse transform="matrix(0.7071 -0.7071 0.7071 0.7071 -32.7094 36.7214)" class="st1" cx="28" cy="57.8" rx="2.8" ry="2.8"/>
		<ellipse transform="matrix(0.7071 -0.7071 0.7071 0.7071 -1.5403 50.5036)" class="st2" cx="60.2" cy="27.1" rx="2" ry="2"/>
	</g>
</g>
<g>
	<polygon class="st3" points="67.3,153.3 95.2,156 79.2,204.9 	"/>
	<polygon class="st3" points="40.9,35.9 50.7,70.4 83.6,53.8 	"/>
	<polygon class="st3" points="50.7,70.4 50.3,110.9 93.9,86.8 	"/>
	<polygon class="st3" points="8.6,89 10.5,137 50.2,109.3 	"/>
	<polygon class="st3" points="50.8,71 10,89.8 50.2,109.3 	"/>
	<polygon class="st3" points="113.8,106.9 49.6,109.5 66.9,153.1 	"/>
	<polygon class="st3" points="172.3,105.2 116,108.3 124.1,162.3 	"/>
	<polygon class="st3" points="181,173.3 125,161 126,205.6 	"/>
	<polygon class="st3" points="201.4,131.4 172.2,104.7 181,173.3 	"/>
	<polygon class="st3" points="126,205.6 95.2,156 78.7,204.6 	"/>
	<polygon class="st3" points="79.8,205 67.8,153.3 45,186 	"/>
	<polygon class="st3" points="124.3,160.4 115.9,107 95.2,156 	"/>
	<polygon class="st3" points="157.5,67.5 93.9,86.8 116.4,106.8 	"/>
	<polygon class="st3" points="130.8,38.2 83.1,53.2 93.1,87 	"/>
	<polygon class="st3" points="160.9,28.2 129.9,38.8 157.5,67.5 	"/>
	<polygon class="st3" points="193.4,64.5 157.5,67 171.9,106.2 	"/>
	<polygon class="st3" points="131.1,38.3 105.4,11 84,52.9 	"/>
	<polygon class="st3" points="11.3,136.9 44.5,187.2 68,152.6 	"/>
	<polygon class="st3" points="40.7,34.9 105.3,11.6 160.5,28.5 193.1,65.1 201.4,131.4 181,173.3 126,205.6 79.5,204.5 44.4,186.5 
		10.6,136.1 8.6,89 	"/>
</g>
<g>
	<circle class="st4" cx="105.3" cy="11.6" r="8"/>
	<circle class="st4" cx="8.6" cy="89" r="4.9"/>
	<circle class="st4" cx="181" cy="173.3" r="4.1"/>
	<circle class="st5" cx="193" cy="64.6" r="4.8"/>
	<circle class="st6" cx="44.4" cy="185.3" r="7.5"/>
	<circle class="st4" cx="160.6" cy="28" r="2.8"/>
	<circle class="st7" cx="40.7" cy="34.9" r="4.3"/>
	<circle class="st7" cx="83.4" cy="53.4" r="3.7"/>
	<circle class="st7" cx="49.6" cy="108.8" r="6.1"/>
	<circle class="st7" cx="124.3" cy="160.4" r="10.2"/>
	<circle class="st7" cx="116.1" cy="107.3" r="8.8"/>
	<circle class="st4" cx="129.9" cy="39.3" r="5.5"/>
	<circle class="st7" cx="171.5" cy="105.2" r="5.5"/>
	<circle class="st7" cx="66.9" cy="153.1" r="4.6"/>
	<circle class="st4" cx="93.1" cy="87" r="2.5"/>
	<circle class="st5" cx="95.2" cy="156" r="2.5"/>
	<circle class="st4" cx="50.7" cy="70.4" r="2.9"/>
	<circle class="st5" cx="157.5" cy="67.5" r="3.8"/>
	<circle class="st4" cx="10.7" cy="136.2" r="6.1"/>
	<circle class="st4" cx="201.4" cy="131.4" r="3.9"/>
	<circle class="st4" cx="126" cy="205.6" r="2.9"/>
	<circle class="st4" cx="79.5" cy="204.5" r="2.1"/>
</g>
<g>
	<g>
		<g>
			<path class="st5" d="M35.9,106c0.1,0,0.1,0,0.2,0c0-0.4-0.1-0.7-0.1-1.1C36,98.3,41.3,93,47.9,93c5.8,0,10.7,4.2,11.7,9.7
				c0.7-0.1,1.4-0.2,2.1-0.2c5.2,0,9.5,4.1,9.7,9.3c1.5,1,2.6,2.7,2.6,4.7c0,3.1-2.5,5.5-5.5,5.5c-1.1,0-28.9,0-32.6,0
				c-4.4,0-8-3.6-8-8C28,109.5,31.5,106,35.9,106z"/>
			<g>
				<path class="st8" d="M35.9,106c0.1,0,0.1,0,0.2,0c0-0.4-0.1-0.7-0.1-1.1c0-3.4,1.5-6.6,3.8-8.7c1.1,6.1,6.5,20.8,34.1,21.5
					c-0.6,2.4-2.8,4.3-5.4,4.3c-1.1,0-28.9,0-32.6,0c-4.4,0-8-3.6-8-8C28,109.5,31.5,106,35.9,106z"/>
			</g>
		</g>
	</g>
	<g>
		<path class="st9" d="M55.4,111.6c0,0,0.4,0,0.9-0.2c0.3-0.1,0.5-0.2,0.8-0.4c0.3-0.2,0.5-0.4,0.6-0.7c0,0,0-0.1,0,0
			c0,0.3,0.1,0.7,0.2,1s0.2,0.7,0.3,1c0.2,0.6,0.3,1,0.3,1l-0.9-0.5c-0.1,0.2-0.2,0.4-0.3,0.6c-0.1,0.1-0.1,0.2-0.2,0.3l-0.1,0.1
			v0.1l-0.2,0.2c-0.1,0.2-0.2,0.3-0.4,0.5c-1,1.2-2.4,2.1-3.8,2.7c-1.5,0.5-3.1,0.7-4.6,0.4c-1.5-0.3-3-0.9-4.2-1.9
			s-2.2-2.3-2.7-3.8l0.7-0.3l0,0l0.7-0.3c0.5,1.2,1.3,2.3,2.3,3.2c1,0.8,2.3,1.4,3.6,1.6c1.3,0.2,2.6,0.1,3.9-0.3
			c1.2-0.4,2.4-1.2,3.2-2.2c0.1-0.1,0.2-0.3,0.3-0.4l0.1-0.2V113l0.1-0.1c0.1-0.1,0.1-0.2,0.2-0.2c0.1-0.2,0.2-0.3,0.3-0.5
			L55.4,111.6z"/>
		<path class="st10" d="M57.7,110.3C57.7,110.3,57.8,110.1,57.7,110.3c0.1,0.3,0.1,0.7,0.2,1s0.2,0.7,0.3,1c0.2,0.6,0.3,1,0.3,1
			l-0.9-0.5c-0.1,0.2-0.2,0.4-0.3,0.6c-0.1,0.1-0.1,0.2-0.2,0.3l-0.1,0.1v0.1l-0.2,0.2c-0.1,0.2-0.2,0.3-0.4,0.5
			c-1,1.2-2.4,2.1-3.8,2.7c-1.5,0.5-3.1,0.7-4.6,0.4c-1.5-0.3-3-0.9-4.2-1.9s-2.2-2.3-2.7-3.8l0.7-0.3l0,0l0.7-0.3
			c0.5,1.2,1.3,2.3,2.3,3.2c0.5,0.4,2.8,3.2,6.9,2.3C54.5,116.3,58,113.9,57.7,110.3z"/>
		<path class="st11" d="M43.6,105.7c0,0-0.4,0-0.9,0.2c-0.3,0.1-0.5,0.2-0.8,0.4c-0.3,0.2-0.5,0.4-0.6,0.7c0,0,0,0.1,0,0
			c0-0.3-0.1-0.7-0.2-1s-0.2-0.7-0.3-1c-0.2-0.6-0.3-1-0.3-1l0.9,0.5c0.1-0.2,0.2-0.4,0.3-0.6c0.1-0.1,0.1-0.2,0.2-0.3l0.1-0.1l0,0
			l0.1-0.1l0.1-0.1c0.1-0.1,0.1-0.2,0.2-0.2c0.2-0.3,0.5-0.6,0.8-0.9c1.1-1.1,2.5-1.9,4.1-2.3c1.5-0.4,3.1-0.4,4.7,0
			c1.5,0.4,2.9,1.2,4.1,2.3c1.1,1.1,2,2.5,2.4,4l-0.7,0.2l0,0l-0.7,0.2c-0.4-1.3-1.1-2.4-2-3.3s-2.1-1.6-3.4-1.9s-2.6-0.3-3.9,0
			s-2.5,1-3.4,1.9c-0.2,0.2-0.5,0.5-0.7,0.7c-0.1,0.1-0.1,0.1-0.2,0.2l-0.1,0.2l0,0l-0.1,0.1c-0.1,0.1-0.1,0.2-0.2,0.2
			c-0.1,0.2-0.2,0.3-0.3,0.5L43.6,105.7z"/>
		<path class="st12" d="M43.6,105.7c0,0-0.4,0-0.9,0.2c-0.3,0.1-0.5,0.2-0.8,0.4c-0.3,0.2-0.5,0.4-0.6,0.7c0,0,0,0.1,0,0
			c0-0.3,1.6-3.7,4.7-5.4c4.2-2.3,8.9-0.5,10,0.6s2,2.5,2.4,4l-0.7,0.2l0,0l-0.7,0.2c-0.4-1.3-1.1-2.4-2-3.3s-2.1-1.6-3.4-1.9
			s-2.6-0.3-3.9,0s-2.5,1-3.4,1.9c-0.2,0.2-0.5,0.5-0.7,0.7c-0.1,0.1-0.1,0.1-0.2,0.2l-0.1,0.2l0,0l-0.1,0.1
			c-0.1,0.1-0.1,0.2-0.2,0.2c-0.1,0.2-0.2,0.3-0.3,0.5L43.6,105.7z"/>
	</g>
</g>
<g>
	<g>
		<path class="st11" d="M136.1,90.8l-16.1,12l2.9-19.8c-11-1.6-21.2,6-22.8,17s6,21.2,17,22.8c11,1.6,21.2-6,22.8-17
			C140.7,100.3,139.2,95,136.1,90.8z"/>
		<path class="st12" d="M120,102.8l2.9-19.8c-11-1.6-21.2,6-22.8,17s6,21.2,17,22.8c7,1,13.6-1.7,18-6.6L120,102.8z"/>
		<path class="st5" d="M139.3,85.3c-3.1-4.1-7.7-7.1-13.2-7.9l-2.9,19.8L139.3,85.3z"/>
	</g>
	<g>
		<path class="st6" d="M120,102.8l2.9-19.8c-11-1.6-21.2,6-22.8,17c-1.3,8.9,3.4,17.3,11.1,21L120,102.8z"/>
	</g>
</g>
<g>
	<g>
		<g>
			<path class="st13" d="M174.3,116c4.4-1.9,6.5-7,4.6-11.5c-1.9-4.4-7-6.5-11.5-4.6c-4.4,1.9-6.5,7-4.6,11.5
				C164.7,115.8,169.9,117.8,174.3,116z M169.9,105.6c1.3-0.5,2.7,0.1,3.2,1.3c0.5,1.3-0.1,2.7-1.3,3.2c-1.3,0.5-2.7-0.1-3.2-1.3
				C168.1,107.6,168.7,106.2,169.9,105.6z"/>
		</g>
		<g>
			<path class="st14" d="M161.8,113.8l1.6-0.7c0.6,0.9,1.5,1.7,2.4,2.3l-0.6,1.6c-0.4,1,0.1,2,1,2.4h0.1c0.9,0.4,2-0.1,2.4-1
				l0.6-1.6c1.1,0.2,2.2,0.2,3.3,0l0.7,1.6c0.4,0.9,1.5,1.4,2.4,1h0.1c0.9-0.4,1.4-1.5,1-2.4l-0.7-1.6c0.9-0.7,1.7-1.5,2.3-2.4
				l1.6,0.6c0.9,0.4,2-0.1,2.4-1v-0.1c0.4-0.9-0.1-2-1-2.4l-1.6-0.6c0.2-1.1,0.2-2.2,0-3.3l1.6-0.7c0.9-0.4,1.4-1.5,1-2.4V103
				c-0.4-0.9-1.5-1.4-2.4-1l-1.6,0.7c-0.6-0.9-1.5-1.7-2.4-2.3l0.6-1.6c0.4-0.9-0.1-2-1-2.4h-0.1c-0.9-0.4-2,0.1-2.4,1l-0.6,1.6
				c-1.1-0.2-2.2-0.2-3.3,0l-0.7-1.6c-0.4-0.9-1.5-1.4-2.4-1H166c-0.9,0.4-1.4,1.5-1,2.4l0.7,1.6c-0.9,0.6-1.7,1.5-2.3,2.4l-1.6-0.6
				c-0.9-0.4-2,0.1-2.4,1v0.1c-0.4,0.9,0.1,2,1,2.4l1.6,0.6c-0.2,1.1-0.2,2.2,0,3.3l-1.6,0.7c-0.9,0.4-1.4,1.5-1,2.4v0.1
				C159.8,113.8,160.9,114.2,161.8,113.8z M168.6,102.5c3-1.3,6.4,0.1,7.6,3.1c1.3,3-0.1,6.4-3.1,7.6c-3,1.3-6.4-0.1-7.6-3.1
				C164.3,107.2,165.7,103.8,168.6,102.5z"/>
		</g>
	</g>
	<g>
		<g>
			<path class="st14" d="M181.5,97c2.7-1.1,3.9-4.2,2.8-6.9c-1.1-2.7-4.2-3.9-6.9-2.8s-3.9,4.2-2.8,6.9S178.8,98.1,181.5,97z
				 M178.8,90.8c0.8-0.3,1.6,0,1.9,0.8c0.3,0.8,0,1.6-0.8,1.9s-1.6,0-1.9-0.8C177.7,92,178.1,91.1,178.8,90.8z"/>
		</g>
		<g>
			<path class="st5" d="M174,95.7l1-0.4c0.4,0.6,0.9,1,1.4,1.4l-0.4,1c-0.2,0.6,0,1.2,0.6,1.4h0.1c0.6,0.2,1.2,0,1.4-0.6l0.4-1
				c0.6,0.1,1.3,0.1,2,0l0.4,1c0.2,0.6,0.9,0.8,1.5,0.6h0.1c0.6-0.2,0.8-0.9,0.6-1.5l-0.4-1c0.6-0.4,1-0.9,1.4-1.4l1,0.4
				c0.6,0.2,1.2,0,1.4-0.6v-0.1c0.2-0.6,0-1.2-0.6-1.4l-1-0.4c0.1-0.6,0.1-1.3,0-2l1-0.4c0.6-0.2,0.8-0.9,0.6-1.5v-0.1
				c-0.2-0.6-0.9-0.8-1.5-0.6l-1,0.4c-0.4-0.6-0.9-1-1.4-1.4l0.4-1c0.2-0.6,0-1.2-0.6-1.4h-0.1c-0.6-0.2-1.2,0-1.4,0.6l-0.4,1
				c-0.6-0.1-1.3-0.1-2,0l-0.4-1c-0.2-0.6-0.9-0.8-1.5-0.6h-0.1c-0.6,0.2-0.8,0.9-0.6,1.5l0.4,1c-0.6,0.4-1,0.9-1.4,1.4l-1-0.4
				c-0.6-0.2-1.2,0-1.4,0.6v0.1c-0.2,0.6,0,1.2,0.6,1.4l1,0.4c-0.1,0.6-0.1,1.3,0,2l-1,0.4c-0.6,0.2-0.8,0.9-0.6,1.5v0.1
				C172.8,95.7,173.4,95.9,174,95.7z M178.1,88.9c1.8-0.8,3.8,0.1,4.6,1.9s-0.1,3.8-1.9,4.6c-1.8,0.8-3.8-0.1-4.6-1.9
				C175.5,91.7,176.3,89.7,178.1,88.9z"/>
		</g>
	</g>
	<g>
		<g>
			<path class="st7" d="M168.8,95.8c2.8-1.6,3.8-5.2,2.2-8.1c-1.6-2.8-5.2-3.8-8.1-2.2c-2.8,1.6-3.8,5.2-2.2,8.1
				C162.4,96.4,166,97.4,168.8,95.8z M165.1,89.2c0.8-0.5,1.8-0.2,2.3,0.6c0.5,0.8,0.2,1.8-0.6,2.3s-1.8,0.2-2.3-0.6
				C164,90.7,164.3,89.7,165.1,89.2z"/>
		</g>
		<g>
			<path class="st15" d="M160.3,95.3l1-0.6c0.5,0.6,1.1,1,1.8,1.4l-0.3,1.1c-0.2,0.7,0.2,1.4,0.9,1.5h0.1c0.7,0.2,1.4-0.2,1.5-0.9
				l0.3-1.1c0.7,0,1.5,0,2.2-0.3l0.6,1c0.3,0.6,1.1,0.8,1.7,0.5h0.1c0.6-0.3,0.8-1.1,0.5-1.7l-0.6-1c0.6-0.5,1-1.1,1.4-1.8l1.1,0.3
				c0.7,0.2,1.4-0.2,1.5-0.9v-0.1c0.2-0.7-0.2-1.4-0.9-1.5l-1.1-0.3c0-0.7,0-1.5-0.3-2.2l1-0.6c0.6-0.3,0.8-1.1,0.5-1.7v-0.1
				c-0.3-0.6-1.1-0.8-1.7-0.5l-1,0.6c-0.5-0.6-1.1-1-1.8-1.4l0.3-1.1c0.2-0.7-0.2-1.4-0.9-1.5h-0.1c-0.7-0.2-1.4,0.2-1.5,0.9
				l-0.3,1.1c-0.7,0-1.5,0-2.2,0.3l-0.6-1c-0.3-0.6-1.1-0.8-1.7-0.5h-0.1c-0.6,0.3-0.8,1.1-0.5,1.7l0.6,1c-0.6,0.5-1,1.1-1.4,1.8
				l-1.1-0.3c-0.7-0.2-1.4,0.2-1.5,0.9v0.1c-0.2,0.7,0.2,1.4,0.9,1.5l1.1,0.3c0,0.7,0,1.5,0.3,2.2l-1,0.6c-0.6,0.3-0.8,1.1-0.5,1.7
				v0.1C158.9,95.5,159.7,95.7,160.3,95.3z M164,87.2c1.9-1.1,4.3-0.4,5.4,1.5c1.1,1.9,0.4,4.3-1.5,5.4s-4.3,0.4-5.4-1.5
				C161.4,90.7,162.1,88.3,164,87.2z"/>
		</g>
	</g>
</g>
<g>
	<g>
		<g>
			<path class="st16" d="M127.1,182.2c0,0.9-0.9,1.6-2.1,1.6s-2.1-0.7-2.1-1.6H127.1z"/>
			<g>
				<path class="st17" d="M136.3,160.9c0-6.2-5-11.2-11.2-11.2s-11.2,5-11.2,11.2c0,7.7,6.1,8.7,6.1,13.9c0,2.9,10.2,3.4,10.2,0
					C130.2,169,136.3,168.7,136.3,160.9z"/>
			</g>
			<g>
				<path class="st18" d="M132.4,152.5c0,0,2.8,5.3-1.8,11.9c-1.3,1.9-3,3.2-4.6,4.1c-3.8,2.1-3.8,8.5-1.4,8.7
					c2.7,0.2,5.6-0.5,5.6-2.3c0-5.8,6.1-6.1,6.1-13.9C136.3,157.6,134.8,154.5,132.4,152.5z"/>
			</g>
			<g>
				<g>
					<path class="st19" d="M119.9,177.2c0-0.5,0.3-0.9,0.7-1c-0.5-0.1-0.8-0.6-0.8-1.1c0-0.6,0.5-1.1,1.1-1.1h8.4
						c0.6,0,1.1,0.5,1.1,1.1c0,0.5-0.4,1-0.8,1.1c0.4,0.2,0.7,0.6,0.7,1c0,0.5-0.3,0.9-0.7,1c0.3,0.2,0.5,0.5,0.5,0.9
						c0,0.5-0.3,0.9-0.8,1.1c0.2,0.2,0.4,0.5,0.4,0.9c0,0.6-0.4,1.1-0.9,1.1h-7.1c-0.5,0-0.9-0.5-0.9-1.1c0-0.4,0.1-0.7,0.4-0.9
						c-0.4-0.1-0.7-0.6-0.7-1.1c0-0.4,0.2-0.7,0.5-0.9C120.2,178.1,119.9,177.7,119.9,177.2z"/>
				</g>
				<g>
					<path class="st20" d="M129.2,174c0.6,0,1.1,0.5,1.1,1.1c0,0.5-0.4,1-0.8,1.1c0.4,0.2,0.7,0.6,0.7,1c0,0.5-0.3,0.9-0.7,1
						c0.3,0.2,0.5,0.5,0.5,0.9c0,0.5-0.3,0.9-0.8,1.1c0.2,0.2,0.4,0.5,0.4,0.9c0,0.6-0.4,1.1-0.9,1.1h-7.1l6.6-1.9h-5.4l6.1-2.1
						h-5.1l5.5-2h-4.1L129.2,174z"/>
				</g>
			</g>
		</g>
		<g>
			<path class="st15" d="M125.6,147c0,0.3-0.2,0.5-0.5,0.5l0,0c-0.3,0-0.5-0.2-0.5-0.5v-7.9c0-0.3,0.2-0.5,0.5-0.5l0,0
				c0.3,0,0.5,0.2,0.5,0.5V147z"/>
			<g>
				<path class="st5" d="M110.9,163.6c0.3,0,0.5,0.2,0.5,0.5l0,0c0,0.3-0.2,0.5-0.5,0.5H103c-0.3,0-0.5-0.2-0.5-0.5l0,0
					c0-0.3,0.2-0.5,0.5-0.5H110.9z"/>
				<path class="st5" d="M147.1,163.6c0.3,0,0.5,0.2,0.5,0.5l0,0c0,0.3-0.2,0.5-0.5,0.5h-7.9c-0.3,0-0.5-0.2-0.5-0.5l0,0
					c0-0.3,0.2-0.5,0.5-0.5H147.1z"/>
			</g>
			<g>
				<path class="st15" d="M137,153.2c-0.2,0.2-0.3,0.5-0.1,0.7l0,0c0.2,0.2,0.5,0.3,0.7,0.1l6.4-4.7c0.2-0.2,0.3-0.5,0.1-0.7l0,0
					c-0.2-0.2-0.5-0.3-0.7-0.1L137,153.2z"/>
				<path class="st5" d="M113.1,153.2c0.2,0.2,0.3,0.5,0.1,0.7l0,0c-0.2,0.2-0.5,0.3-0.7,0.1l-6.4-4.7c-0.2-0.2-0.3-0.5-0.1-0.7l0,0
					c0.2-0.2,0.5-0.3,0.7-0.1L113.1,153.2z"/>
			</g>
		</g>
	</g>
</g>
<g>
	<g>
		<g>
			
				<ellipse transform="matrix(5.705224e-03 -1 1 5.705224e-03 120.3834 122.6722)" class="st5" cx="121.9" cy="0.8" rx="0.8" ry="0.8"/>
			
				<ellipse transform="matrix(5.406539e-03 -1 1 5.406539e-03 100.7956 127.8602)" class="st5" cx="114.7" cy="13.3" rx="0.8" ry="0.8"/>
			
				<ellipse transform="matrix(5.409771e-03 -1 1 5.409771e-03 104.9415 114.7633)" class="st5" cx="110.2" cy="4.6" rx="0.8" ry="0.8"/>
			
				<ellipse transform="matrix(5.104954e-03 -1 1 5.104954e-03 94.7947 117.932)" class="st5" cx="106.7" cy="11.3" rx="0.8" ry="0.8"/>
			
				<ellipse transform="matrix(6.114429e-03 -1 1 6.114429e-03 85.4862 114.0928)" class="st5" cx="100.1" cy="14" rx="0.8" ry="0.8"/>
			
				<ellipse transform="matrix(5.979217e-03 -1 1 5.979217e-03 77.1456 117.8696)" class="st5" cx="97.9" cy="20.1" rx="0.8" ry="0.8"/>
			
				<ellipse transform="matrix(5.404279e-03 -1 1 5.404279e-03 78.0148 112.2045)" class="st5" cx="95.4" cy="16.9" rx="0.8" ry="0.8"/>
			
				<ellipse transform="matrix(5.371377e-03 -1 1 5.371377e-03 75.0717 100.4444)" class="st5" cx="88" cy="12.5" rx="0.8" ry="0.8"/>
			<polygon class="st5" points="110.2,4.2 114.6,12.9 121.8,0.8 122.2,0.8 114.6,13.5 110.2,5 106.7,11.5 100.3,14.2 97.9,20.5 
				95.3,17 87.9,12.7 88.1,12.4 95.5,16.8 95.5,16.8 97.8,19.9 100.1,14 100.1,14 106.5,11.3 			"/>
		</g>
		<g>
			<polygon class="st5" points="94.7,18.7 88.1,16.9 88.2,16.6 94.6,18.4 100.3,13.6 104,7.3 110.5,13 113.2,10.2 115.7,5.3 
				116.1,5.3 113.4,10.4 110.5,13.4 104,7.7 100.5,13.8 100.5,13.8 			"/>
			
				<ellipse transform="matrix(5.483164e-03 -1 1 5.483164e-03 71.1076 104.5983)" class="st5" cx="88.1" cy="16.5" rx="0.8" ry="0.8"/>
			
				<ellipse transform="matrix(5.312405e-03 -1 1 5.312405e-03 75.7534 112.9669)" class="st5" cx="94.7" cy="18.4" rx="0.8" ry="0.8"/>
			
				<ellipse transform="matrix(5.635382e-03 -1 1 5.635382e-03 86.2174 113.9485)" class="st5" cx="100.4" cy="13.6" rx="0.8" ry="0.8"/>
			
				<ellipse transform="matrix(5.456099e-03 -1 1 5.456099e-03 95.8079 111.2857)" class="st5" cx="103.9" cy="7.5" rx="0.8" ry="0.8"/>
			
				<ellipse transform="matrix(5.754229e-03 -1 1 5.754229e-03 96.732 123.5986)" class="st5" cx="110.5" cy="13.2" rx="0.8" ry="0.8"/>
			
				<ellipse transform="matrix(5.485428e-03 -1 1 5.485428e-03 102.4075 123.3206)" class="st5" cx="113.2" cy="10.2" rx="0.8" ry="0.8"/>
			
				<ellipse transform="matrix(5.754229e-03 -1 1 5.754229e-03 109.6748 121.3737)" class="st5" cx="115.9" cy="5.5" rx="0.8" ry="0.8"/>
		</g>
	</g>
</g>
<g>
	<rect x="82.7" y="38.8" class="st5" width="8.8" height="5.7"/>
	<rect x="71.5" y="49.3" class="st15" width="16" height="10.6"/>
	<path class="st5" d="M69.4,49.6V68c0,0,1.4-6.8,8-6.8h10.2c1.1,0,2-0.9,2-2v-9.6c0-1.1-0.9-2-2-2H71.4
		C70.3,47.6,69.4,48.5,69.4,49.6z M86,55.3h-8v-1.5h8V55.3z M76,57.1h10v1.5H76V57.1z M72.9,50.6H86v1.5H72.9V50.6z"/>
	<path class="st21" d="M88.1,45.4c3.6,0,4.4,3.8,4.4,3.8V39.1c0-0.6-0.5-1.1-1.1-1.1h-8.9c-0.6,0-1.1,0.5-1.1,1.1v5.3
		c0,0.6,0.5,1.1,1.1,1.1h5.6V45.4z M90.2,40.9h-6.8v-1h6.8V40.9z M90.2,43.3H87v-1h3.2V43.3z"/>
</g>
<g>
	<g>
		<path class="st22" d="M30,45.5c0,0.3,0.3,0.6,0.6,0.6h19.3c0.3,0,0.6-0.3,0.6-0.6v-4c0-0.3-0.3-0.6-0.6-0.6H30.5
			c-0.3,0-0.6,0.3-0.6,0.6v4H30z"/>
		<g>
			<path class="st23" d="M50.4,45.5c0,0.3-0.3,0.6-0.6,0.6H30.5c-0.3,0-0.6-0.3-0.6-0.6v-2h20.5V45.5z"/>
		</g>
		<path class="st24" d="M30.4,45.1c0,0.3,0.3,0.6,0.6,0.6h4.6c0.3,0,0.6-0.3,0.6-0.6V42c0-0.3-0.3-0.6-0.6-0.6H31
			c-0.3,0-0.6,0.3-0.6,0.6V45.1z"/>
		<path class="st25" d="M30.4,43.6h5.7V42c0-0.3-0.3-0.6-0.6-0.6h-4.6c-0.3,0-0.6,0.3-0.6,0.6v1.6H30.4z"/>
		<g>
			<path class="st26" d="M49.1,45.4c0,0.1,0.1,0.2,0.2,0.2l0,0c0.1,0,0.2-0.1,0.2-0.2v-3.6c0-0.1-0.1-0.2-0.2-0.2l0,0
				c-0.1,0-0.2,0.1-0.2,0.2V45.4z"/>
		</g>
		<g>
			<path class="st26" d="M48.3,45.4c0,0.1,0.1,0.2,0.2,0.2l0,0c0.1,0,0.2-0.1,0.2-0.2v-3.6c0-0.1-0.1-0.2-0.2-0.2l0,0
				c-0.1,0-0.2,0.1-0.2,0.2V45.4z"/>
		</g>
		<g>
			<path class="st26" d="M47.5,45.4c0,0.1,0.1,0.2,0.2,0.2l0,0c0.1,0,0.2-0.1,0.2-0.2v-3.6c0-0.1-0.1-0.2-0.2-0.2l0,0
				c-0.1,0-0.2,0.1-0.2,0.2V45.4z"/>
		</g>
		<g>
			<path class="st26" d="M46.6,45.4c0,0.1,0.1,0.2,0.2,0.2l0,0c0.1,0,0.2-0.1,0.2-0.2v-3.6c0-0.1-0.1-0.2-0.2-0.2l0,0
				c-0.1,0-0.2,0.1-0.2,0.2V45.4z"/>
		</g>
		<g>
			<path class="st26" d="M45.8,45.4c0,0.1,0.1,0.2,0.2,0.2l0,0c0.1,0,0.2-0.1,0.2-0.2v-3.6c0-0.1-0.1-0.2-0.2-0.2l0,0
				c-0.1,0-0.2,0.1-0.2,0.2V45.4z"/>
		</g>
		<g>
			<circle class="st27" cx="37.7" cy="42" r="0.3"/>
			<path class="st28" d="M37.4,42c0,0.2,0.1,0.3,0.3,0.3v-0.6C37.5,41.7,37.4,41.8,37.4,42z"/>
		</g>
		<g>
			<circle class="st29" cx="31.5" cy="42" r="0.3"/>
			<path class="st30" d="M31.2,42c0,0.2,0.1,0.3,0.3,0.3v-0.6C31.3,41.7,31.2,41.9,31.2,42z"/>
		</g>
		<g>
			<circle class="st29" cx="31.5" cy="43" r="0.3"/>
			<path class="st30" d="M31.2,43c0,0.2,0.1,0.3,0.3,0.3v-0.6C31.3,42.7,31.2,42.9,31.2,43z"/>
		</g>
		<g>
			<circle class="st29" cx="31.5" cy="44" r="0.3"/>
			<path class="st30" d="M31.2,44c0,0.2,0.1,0.3,0.3,0.3v-0.6C31.3,43.7,31.2,43.9,31.2,44z"/>
		</g>
		<g>
			<circle class="st29" cx="31.5" cy="45" r="0.3"/>
			<path class="st30" d="M31.2,45c0,0.2,0.1,0.3,0.3,0.3v-0.6C31.3,44.7,31.2,44.9,31.2,45z"/>
		</g>
		<g>
			<circle class="st27" cx="38.7" cy="42" r="0.3"/>
			<path class="st28" d="M38.4,42c0,0.2,0.1,0.3,0.3,0.3v-0.6C38.5,41.7,38.4,41.8,38.4,42z"/>
		</g>
		<g>
			<circle class="st11" cx="39.7" cy="42" r="0.3"/>
			<path class="st31" d="M39.4,42c0,0.2,0.1,0.3,0.3,0.3v-0.6C39.5,41.7,39.4,41.8,39.4,42z"/>
		</g>
		<path class="st32" d="M32.6,44.7c0,0.3,0.3,0.6,0.6,0.6h2.1c0.3,0,0.6-0.3,0.6-0.6v-2.4c0-0.3-0.3-0.6-0.6-0.6h-2.1
			c-0.3,0-0.6,0.3-0.6,0.6V44.7z"/>
		<path class="st31" d="M32.6,43.6h3.2v-1.2c0-0.3-0.3-0.6-0.6-0.6h-2.1c-0.3,0-0.6,0.3-0.6,0.6v1.2H32.6z"/>
	</g>
	<g>
		<path class="st22" d="M30,40.1c0,0.3,0.3,0.6,0.6,0.6h19.3c0.3,0,0.6-0.3,0.6-0.6v-4c0-0.3-0.3-0.6-0.6-0.6H30.5
			c-0.3,0-0.6,0.3-0.6,0.6v4H30z"/>
		<g>
			<path class="st23" d="M50.4,40.1c0,0.3-0.3,0.6-0.6,0.6H30.5c-0.3,0-0.6-0.3-0.6-0.6v-2h20.5V40.1z"/>
		</g>
		<path class="st24" d="M30.4,39.6c0,0.3,0.3,0.6,0.6,0.6h4.6c0.3,0,0.6-0.3,0.6-0.6v-3.1c0-0.3-0.3-0.6-0.6-0.6H31
			c-0.3,0-0.6,0.3-0.6,0.6V39.6z"/>
		<path class="st25" d="M30.4,38.1h5.7v-1.6c0-0.3-0.3-0.6-0.6-0.6h-4.6c-0.3,0-0.6,0.3-0.6,0.6v1.6H30.4z"/>
		<g>
			<path class="st26" d="M49.1,39.9c0,0.1,0.1,0.2,0.2,0.2l0,0c0.1,0,0.2-0.1,0.2-0.2v-3.6c0-0.1-0.1-0.2-0.2-0.2l0,0
				c-0.1,0-0.2,0.1-0.2,0.2V39.9z"/>
		</g>
		<g>
			<path class="st26" d="M48.3,39.9c0,0.1,0.1,0.2,0.2,0.2l0,0c0.1,0,0.2-0.1,0.2-0.2v-3.6c0-0.1-0.1-0.2-0.2-0.2l0,0
				c-0.1,0-0.2,0.1-0.2,0.2V39.9z"/>
		</g>
		<g>
			<path class="st26" d="M47.5,39.9c0,0.1,0.1,0.2,0.2,0.2l0,0c0.1,0,0.2-0.1,0.2-0.2v-3.6c0-0.1-0.1-0.2-0.2-0.2l0,0
				c-0.1,0-0.2,0.1-0.2,0.2V39.9z"/>
		</g>
		<g>
			<path class="st26" d="M46.6,39.9c0,0.1,0.1,0.2,0.2,0.2l0,0c0.1,0,0.2-0.1,0.2-0.2v-3.6c0-0.1-0.1-0.2-0.2-0.2l0,0
				c-0.1,0-0.2,0.1-0.2,0.2V39.9z"/>
		</g>
		<g>
			<path class="st26" d="M45.8,39.9c0,0.1,0.1,0.2,0.2,0.2l0,0c0.1,0,0.2-0.1,0.2-0.2v-3.6c0-0.1-0.1-0.2-0.2-0.2l0,0
				c-0.1,0-0.2,0.1-0.2,0.2V39.9z"/>
		</g>
		<g>
			<circle class="st27" cx="37.7" cy="36.5" r="0.3"/>
			<path class="st28" d="M37.4,36.5c0,0.2,0.1,0.3,0.3,0.3v-0.6C37.5,36.2,37.4,36.4,37.4,36.5z"/>
		</g>
		<g>
			<circle class="st29" cx="31.5" cy="36.6" r="0.3"/>
			<path class="st30" d="M31.2,36.6c0,0.2,0.1,0.3,0.3,0.3v-0.6C31.3,36.3,31.2,36.4,31.2,36.6z"/>
		</g>
		<g>
			<circle class="st29" cx="31.5" cy="37.6" r="0.3"/>
			<path class="st30" d="M31.2,37.6c0,0.2,0.1,0.3,0.3,0.3v-0.6C31.3,37.3,31.2,37.4,31.2,37.6z"/>
		</g>
		<g>
			<circle class="st29" cx="31.5" cy="38.6" r="0.3"/>
			<path class="st30" d="M31.2,38.6c0,0.2,0.1,0.3,0.3,0.3v-0.6C31.3,38.3,31.2,38.4,31.2,38.6z"/>
		</g>
		<g>
			<circle class="st29" cx="31.5" cy="39.6" r="0.3"/>
			<path class="st30" d="M31.2,39.6c0,0.2,0.1,0.3,0.3,0.3v-0.6C31.3,39.3,31.2,39.4,31.2,39.6z"/>
		</g>
		<g>
			<circle class="st27" cx="38.7" cy="36.5" r="0.3"/>
			<path class="st28" d="M38.4,36.5c0,0.2,0.1,0.3,0.3,0.3v-0.6C38.5,36.2,38.4,36.4,38.4,36.5z"/>
		</g>
		<g>
			<circle class="st11" cx="39.7" cy="36.5" r="0.3"/>
			<path class="st31" d="M39.4,36.5c0,0.2,0.1,0.3,0.3,0.3v-0.6C39.5,36.2,39.4,36.4,39.4,36.5z"/>
		</g>
		<path class="st32" d="M32.6,39.3c0,0.3,0.3,0.6,0.6,0.6h2.1c0.3,0,0.6-0.3,0.6-0.6v-2.4c0-0.3-0.3-0.6-0.6-0.6h-2.1
			c-0.3,0-0.6,0.3-0.6,0.6V39.3z"/>
		<path class="st31" d="M32.6,38.1h3.2v-1.2c0-0.3-0.3-0.6-0.6-0.6h-2.1c-0.3,0-0.6,0.3-0.6,0.6v1.2H32.6z"/>
	</g>
	<g>
		<path class="st22" d="M30,34.6c0,0.3,0.3,0.6,0.6,0.6h19.3c0.3,0,0.6-0.3,0.6-0.6v-4c0-0.3-0.3-0.6-0.6-0.6H30.5
			c-0.3,0-0.6,0.3-0.6,0.6v4H30z"/>
		<g>
			<path class="st23" d="M50.4,34.6c0,0.3-0.3,0.6-0.6,0.6H30.5c-0.3,0-0.6-0.3-0.6-0.6v-2h20.5V34.6z"/>
		</g>
		<path class="st24" d="M30.4,34.2c0,0.3,0.3,0.6,0.6,0.6h4.6c0.3,0,0.6-0.3,0.6-0.6v-3.1c0-0.3-0.3-0.6-0.6-0.6H31
			c-0.3,0-0.6,0.3-0.6,0.6V34.2z"/>
		<path class="st25" d="M30.4,32.6h5.7v-1.5c0-0.3-0.3-0.6-0.6-0.6h-4.6c-0.3,0-0.6,0.3-0.6,0.6v1.5H30.4z"/>
		<g>
			<path class="st26" d="M49.1,34.4c0,0.1,0.1,0.2,0.2,0.2l0,0c0.1,0,0.2-0.1,0.2-0.2v-3.6c0-0.1-0.1-0.2-0.2-0.2l0,0
				c-0.1,0-0.2,0.1-0.2,0.2V34.4z"/>
		</g>
		<g>
			<path class="st26" d="M48.3,34.4c0,0.1,0.1,0.2,0.2,0.2l0,0c0.1,0,0.2-0.1,0.2-0.2v-3.6c0-0.1-0.1-0.2-0.2-0.2l0,0
				c-0.1,0-0.2,0.1-0.2,0.2V34.4z"/>
		</g>
		<g>
			<path class="st26" d="M47.5,34.4c0,0.1,0.1,0.2,0.2,0.2l0,0c0.1,0,0.2-0.1,0.2-0.2v-3.6c0-0.1-0.1-0.2-0.2-0.2l0,0
				c-0.1,0-0.2,0.1-0.2,0.2V34.4z"/>
		</g>
		<g>
			<path class="st26" d="M46.6,34.4c0,0.1,0.1,0.2,0.2,0.2l0,0c0.1,0,0.2-0.1,0.2-0.2v-3.6c0-0.1-0.1-0.2-0.2-0.2l0,0
				c-0.1,0-0.2,0.1-0.2,0.2V34.4z"/>
		</g>
		<g>
			<path class="st26" d="M45.8,34.4c0,0.1,0.1,0.2,0.2,0.2l0,0c0.1,0,0.2-0.1,0.2-0.2v-3.6c0-0.1-0.1-0.2-0.2-0.2l0,0
				c-0.1,0-0.2,0.1-0.2,0.2V34.4z"/>
		</g>
		<g>
			<circle class="st27" cx="37.7" cy="31.1" r="0.3"/>
			<path class="st28" d="M37.4,31.1c0,0.2,0.1,0.3,0.3,0.3v-0.6C37.5,30.8,37.4,30.9,37.4,31.1z"/>
		</g>
		<g>
			<circle class="st29" cx="31.5" cy="31.1" r="0.3"/>
			<path class="st30" d="M31.2,31.1c0,0.2,0.1,0.3,0.3,0.3v-0.6C31.3,30.8,31.2,30.9,31.2,31.1z"/>
		</g>
		<g>
			<circle class="st29" cx="31.5" cy="32.1" r="0.3"/>
			<path class="st30" d="M31.2,32.1c0,0.2,0.1,0.3,0.3,0.3v-0.6C31.3,31.8,31.2,31.9,31.2,32.1z"/>
		</g>
		<g>
			<circle class="st29" cx="31.5" cy="33.1" r="0.3"/>
			<path class="st30" d="M31.2,33.1c0,0.2,0.1,0.3,0.3,0.3v-0.6C31.3,32.8,31.2,32.9,31.2,33.1z"/>
		</g>
		<g>
			<circle class="st29" cx="31.5" cy="34.1" r="0.3"/>
			<path class="st30" d="M31.2,34.1c0,0.2,0.1,0.3,0.3,0.3v-0.6C31.3,33.8,31.2,33.9,31.2,34.1z"/>
		</g>
		<g>
			<circle class="st27" cx="38.7" cy="31.1" r="0.3"/>
			<path class="st28" d="M38.4,31.1c0,0.2,0.1,0.3,0.3,0.3v-0.6C38.5,30.8,38.4,30.9,38.4,31.1z"/>
		</g>
		<g>
			<circle class="st11" cx="39.7" cy="31.1" r="0.3"/>
			<path class="st31" d="M39.4,31.1c0,0.2,0.1,0.3,0.3,0.3v-0.6C39.5,30.8,39.4,30.9,39.4,31.1z"/>
		</g>
		<path class="st32" d="M32.6,33.8c0,0.3,0.3,0.6,0.6,0.6h2.1c0.3,0,0.6-0.3,0.6-0.6v-2.4c0-0.3-0.3-0.6-0.6-0.6h-2.1
			c-0.3,0-0.6,0.3-0.6,0.6V33.8z"/>
		<path class="st31" d="M32.6,32.6h3.2v-1.2c0-0.3-0.3-0.6-0.6-0.6h-2.1c-0.3,0-0.6,0.3-0.6,0.6v1.2H32.6z"/>
	</g>
	<g>
		<path class="st22" d="M30,29.1c0,0.3,0.3,0.6,0.6,0.6h19.3c0.3,0,0.6-0.3,0.6-0.6v-4c0-0.3-0.3-0.6-0.6-0.6H30.5
			c-0.3,0-0.6,0.3-0.6,0.6v4H30z"/>
		<g>
			<path class="st23" d="M50.4,29.1c0,0.3-0.3,0.6-0.6,0.6H30.5c-0.3,0-0.6-0.3-0.6-0.6v-2h20.5V29.1z"/>
		</g>
		<path class="st24" d="M30.4,28.7c0,0.3,0.3,0.6,0.6,0.6h4.6c0.3,0,0.6-0.3,0.6-0.6v-3.1c0-0.3-0.3-0.6-0.6-0.6H31
			c-0.3,0-0.6,0.3-0.6,0.6V28.7z"/>
		<path class="st25" d="M30.4,27.2h5.7v-1.6c0-0.3-0.3-0.6-0.6-0.6h-4.6c-0.3,0-0.6,0.3-0.6,0.6v1.6H30.4z"/>
		<g>
			<path class="st26" d="M49.1,29c0,0.1,0.1,0.2,0.2,0.2l0,0c0.1,0,0.2-0.1,0.2-0.2v-3.6c0-0.1-0.1-0.2-0.2-0.2l0,0
				c-0.1,0-0.2,0.1-0.2,0.2V29z"/>
		</g>
		<g>
			<path class="st26" d="M48.3,29c0,0.1,0.1,0.2,0.2,0.2l0,0c0.1,0,0.2-0.1,0.2-0.2v-3.6c0-0.1-0.1-0.2-0.2-0.2l0,0
				c-0.1,0-0.2,0.1-0.2,0.2V29z"/>
		</g>
		<g>
			<path class="st26" d="M47.5,29c0,0.1,0.1,0.2,0.2,0.2l0,0c0.1,0,0.2-0.1,0.2-0.2v-3.6c0-0.1-0.1-0.2-0.2-0.2l0,0
				c-0.1,0-0.2,0.1-0.2,0.2V29z"/>
		</g>
		<g>
			<path class="st26" d="M46.6,29c0,0.1,0.1,0.2,0.2,0.2l0,0c0.1,0,0.2-0.1,0.2-0.2v-3.6c0-0.1-0.1-0.2-0.2-0.2l0,0
				c-0.1,0-0.2,0.1-0.2,0.2V29z"/>
		</g>
		<g>
			<path class="st26" d="M45.8,29c0,0.1,0.1,0.2,0.2,0.2l0,0c0.1,0,0.2-0.1,0.2-0.2v-3.6c0-0.1-0.1-0.2-0.2-0.2l0,0
				c-0.1,0-0.2,0.1-0.2,0.2V29z"/>
		</g>
		<g>
			<circle class="st27" cx="37.7" cy="25.6" r="0.3"/>
			<path class="st28" d="M37.4,25.6c0,0.2,0.1,0.3,0.3,0.3v-0.6C37.5,25.3,37.4,25.4,37.4,25.6z"/>
		</g>
		<g>
			<circle class="st29" cx="31.5" cy="25.7" r="0.3"/>
			<path class="st30" d="M31.2,25.7c0,0.2,0.1,0.3,0.3,0.3v-0.6C31.3,25.3,31.2,25.5,31.2,25.7z"/>
		</g>
		<g>
			<circle class="st29" cx="31.5" cy="26.7" r="0.3"/>
			<path class="st30" d="M31.2,26.7c0,0.2,0.1,0.3,0.3,0.3v-0.6C31.3,26.3,31.2,26.5,31.2,26.7z"/>
		</g>
		<g>
			<circle class="st29" cx="31.5" cy="27.6" r="0.3"/>
			<path class="st30" d="M31.2,27.6c0,0.2,0.1,0.3,0.3,0.3v-0.6C31.3,27.3,31.2,27.5,31.2,27.6z"/>
		</g>
		<g>
			<circle class="st29" cx="31.5" cy="28.6" r="0.3"/>
			<path class="st30" d="M31.2,28.6c0,0.2,0.1,0.3,0.3,0.3v-0.6C31.3,28.3,31.2,28.5,31.2,28.6z"/>
		</g>
		<g>
			<circle class="st27" cx="38.7" cy="25.6" r="0.3"/>
			<path class="st28" d="M38.4,25.6c0,0.2,0.1,0.3,0.3,0.3v-0.6C38.5,25.3,38.4,25.4,38.4,25.6z"/>
		</g>
		<g>
			<circle class="st11" cx="39.7" cy="25.6" r="0.3"/>
			<path class="st31" d="M39.4,25.6c0,0.2,0.1,0.3,0.3,0.3v-0.6C39.5,25.3,39.4,25.4,39.4,25.6z"/>
		</g>
		<path class="st32" d="M32.6,28.3c0,0.3,0.3,0.6,0.6,0.6h2.1c0.3,0,0.6-0.3,0.6-0.6v-2.4c0-0.3-0.3-0.6-0.6-0.6h-2.1
			c-0.3,0-0.6,0.3-0.6,0.6V28.3z"/>
		<path class="st31" d="M32.6,27.2h3.2V26c0-0.3-0.3-0.6-0.6-0.6h-2.1c-0.3,0-0.6,0.3-0.6,0.6v1.2H32.6z"/>
	</g>
</g>
<g>
	<path class="st14" d="M121.9,39.3h-5.1c0,3.6,1.5,6.8,3.8,9.2l3.6-3.6C122.8,43.5,121.9,41.5,121.9,39.3z"/>
	<path class="st33" d="M137.9,39.2h5.1c0-3.6-1.5-6.8-3.8-9.2l-3.6,3.6C137,35,137.9,37,137.9,39.2z"/>
	<path class="st14" d="M124.2,33.6l-3.6-3.6c-2.4,2.4-3.8,5.6-3.8,9.2h5.1C121.9,37,122.8,35,124.2,33.6z"/>
	<path class="st33" d="M129.9,31.2v-5.1c-3.6,0-6.8,1.5-9.2,3.8l3.6,3.6C125.7,32.1,127.7,31.2,129.9,31.2z"/>
	<path class="st5" d="M137.9,39.3c0,2.2-0.9,4.2-2.3,5.6l3.6,3.6c2.3-2.4,3.8-5.6,3.8-9.2L137.9,39.3L137.9,39.3z"/>
	<path class="st33" d="M135.6,33.5l3.6-3.6c-2.4-2.4-5.6-3.8-9.2-3.8v5.1C132.1,31.2,134.1,32.1,135.6,33.5z"/>
	<path class="st14" d="M124.2,44.9l-3.6,3.6c2.4,2.3,5.6,3.8,9.2,3.8v-5.1C127.7,47.3,125.7,46.4,124.2,44.9z"/>
	<path class="st15" d="M129.9,47.3v5.1c3.6,0,6.8-1.5,9.2-3.8l-3.6-3.6C134.1,46.4,132.1,47.3,129.9,47.3z"/>
</g>
<g>
	<path class="st14" d="M174.8,173.5h-3.9c0,2.8,1.1,5.3,3,7.2l2.8-2.8C175.5,176.8,174.8,175.2,174.8,173.5z"/>
	<path class="st33" d="M187.4,173.5h3.9c0-2.8-1.1-5.3-3-7.2l-2.8,2.8C186.7,170.2,187.4,171.7,187.4,173.5z"/>
	<path class="st14" d="M176.7,169.1l-2.8-2.8c-1.8,1.8-3,4.4-3,7.2h3.9C174.8,171.7,175.5,170.2,176.7,169.1z"/>
	<path class="st5" d="M181.1,167.2v-3.9c-2.8,0-5.3,1.1-7.2,3l2.8,2.8C177.8,167.9,179.4,167.2,181.1,167.2z"/>
	<path class="st5" d="M187.4,173.5c0,1.7-0.7,3.3-1.8,4.4l2.8,2.8c1.8-1.8,3-4.4,3-7.2L187.4,173.5L187.4,173.5z"/>
	<path class="st5" d="M185.5,169l2.8-2.8c-1.8-1.8-4.4-3-7.2-3v3.9C182.9,167.2,184.4,167.9,185.5,169z"/>
	<path class="st14" d="M176.7,177.9l-2.8,2.8c1.8,1.8,4.4,3,7.2,3v-3.9C179.4,179.7,177.8,179.1,176.7,177.9z"/>
	<path class="st14" d="M181.1,179.8v3.9c2.8,0,5.3-1.1,7.2-3l-2.8-2.8C184.4,179.1,182.9,179.7,181.1,179.8z"/>
</g>
<g>
	<rect x="51.4" y="148.8" class="st5" width="2" height="7.6"/>
	<rect x="54.6" y="147.1" class="st5" width="2" height="9.3"/>
	<rect x="57.8" y="144.9" class="st5" width="2" height="11.5"/>
	<rect x="61" y="150.2" class="st5" width="2" height="6.2"/>
	<rect x="64.3" y="148.1" class="st5" width="2" height="8.3"/>
	<rect x="67.5" y="146.9" class="st5" width="2" height="9.6"/>
	<rect x="70.7" y="144.9" class="st5" width="2" height="11.6"/>
	<rect x="73.9" y="143.2" class="st5" width="2" height="13.2"/>
	<rect x="77.1" y="138.6" class="st5" width="2" height="17.9"/>
	<rect x="80.3" y="137.2" class="st5" width="2" height="19.3"/>
</g>
<g>
	<path class="st15" d="M14.7,127.4c-1.4-0.6-3-0.9-4.6-0.8c-1.2,0.1-2.4,0.4-3.4,0.9l-0.4-0.8l-1.1,2.4l2.5,0.7l-0.3-0.7
		c0.9-0.4,1.8-0.6,2.8-0.7c1.3-0.1,2.6,0.2,3.8,0.7l-0.4,0.8l2.5-0.6l-1-2.4L14.7,127.4z"/>
	<path class="st15" d="M2.6,136.8l0.8-0.1l-1.8-1.9L0,136.9l0.8-0.1c0.2,3.4,2.1,6.2,4.9,7.8l-0.4,0.8l2.5-0.6l-1-2.4l-0.4,0.7
		C4.3,141.9,2.8,139.6,2.6,136.8z"/>
	<path class="st15" d="M20.4,135.7L20.4,135.7L20.4,135.7l-0.9-1l-1.6,2h0.8c-0.1,2.7-1.6,5.1-3.8,6.5l-0.5-0.7l-0.8,2.5l2.6,0.4
		l-0.4-0.7c2.7-1.7,4.5-4.6,4.6-8h0.8L20.4,135.7z"/>
</g>
<g>
	<path class="st15" d="M197,55.9c-1.4-0.6-3-0.9-4.6-0.8c-1.2,0.1-2.4,0.4-3.4,0.9l-0.4-0.8l-1.1,2.4l2.5,0.7l-0.3-0.7
		c0.9-0.4,1.8-0.6,2.8-0.7c1.3-0.1,2.6,0.2,3.8,0.7l-0.4,0.8l2.5-0.6l-1-2.4L197,55.9z"/>
	<path class="st15" d="M184.9,65.4l0.8-0.1l-1.8-1.9l-1.6,2.1l0.8-0.1c0.2,3.4,2.1,6.2,4.9,7.8l-0.4,0.8l2.5-0.6l-1-2.4l-0.4,0.7
		C186.6,70.5,185.1,68.2,184.9,65.4z"/>
	<path class="st15" d="M202.7,64.3L202.7,64.3L202.7,64.3l-0.9-1l-1.6,2h0.8c-0.1,2.7-1.6,5.1-3.8,6.5l-0.5-0.7l-0.8,2.5l2.6,0.4
		l-0.4-0.7c2.7-1.7,4.5-4.6,4.6-8h0.8L202.7,64.3z"/>
</g>
</svg>
